<svg width="33" height="33" viewBox="0 0 33 33" fill="none" xmlns="http://www.w3.org/2000/svg">
<path fill-rule="evenodd" clip-rule="evenodd" d="M16.5 0.665283C7.48579 0.665283 0.184692 7.96638 0.184692 16.9806C0.184692 24.2001 4.85494 30.2979 11.3403 32.4597C12.156 32.6025 12.4619 32.113 12.4619 31.6847C12.4619 31.2972 12.4416 30.0124 12.4416 28.646C8.34234 29.4006 7.28184 27.6467 6.95554 26.729C6.77199 26.2599 5.97662 24.8119 5.28322 24.4244C4.71219 24.1185 3.89642 23.3639 5.26283 23.3435C6.54766 23.3231 7.46539 24.5264 7.7713 25.0159C9.23968 27.4835 11.585 26.7901 12.5231 26.3619C12.6659 25.3014 13.0942 24.5876 13.5632 24.1797C9.93308 23.7718 6.13977 22.3646 6.13977 16.124C6.13977 14.3497 6.77199 12.8814 7.81209 11.7393C7.64894 11.3314 7.0779 9.65909 7.97524 7.41574C7.97524 7.41574 9.34165 6.98746 12.4619 9.08805C13.7672 8.72096 15.154 8.53741 16.5408 8.53741C17.9276 8.53741 19.3144 8.72096 20.6196 9.08805C23.7399 6.96707 25.1063 7.41574 25.1063 7.41574C26.0036 9.65909 25.4326 11.3314 25.2695 11.7393C26.3096 12.8814 26.9418 14.3293 26.9418 16.124C26.9418 22.385 23.1281 23.7718 19.4979 24.1797C20.0893 24.6896 20.5992 25.6685 20.5992 27.198C20.5992 29.3802 20.5788 31.1341 20.5788 31.6847C20.5788 32.113 20.8847 32.6229 21.7005 32.4597C24.9394 31.3663 27.7538 29.2847 29.7477 26.5079C31.7415 23.7312 32.8144 20.399 32.8153 16.9806C32.8153 7.96638 25.5142 0.665283 16.5 0.665283Z" fill="white"/>
</svg>
