<svg width="31" height="31" viewBox="0 0 31 31" fill="none" xmlns="http://www.w3.org/2000/svg">
<path d="M30.2621 3.05366V28.1024C30.2621 28.6751 30.0346 29.2244 29.6297 29.6293C29.2247 30.0343 28.6754 30.2618 28.1027 30.2618H3.05397C2.48127 30.2618 1.93202 30.0343 1.52706 29.6293C1.1221 29.2244 0.894592 28.6751 0.894592 28.1024L0.894592 3.05366C0.894592 2.48096 1.1221 1.93172 1.52706 1.52675C1.93202 1.12179 2.48127 0.894287 3.05397 0.894287L28.1027 0.894287C28.6754 0.894287 29.2247 1.12179 29.6297 1.52675C30.0346 1.93172 30.2621 2.48096 30.2621 3.05366V3.05366ZM9.5321 12.123H5.21335V25.9431H9.5321V12.123ZM9.92079 7.37242C9.92306 7.04574 9.86097 6.72181 9.73806 6.41913C9.61514 6.11645 9.43381 5.84094 9.20442 5.60834C8.97503 5.37574 8.70206 5.1906 8.40112 5.06349C8.10017 4.93639 7.77714 4.8698 7.45046 4.86754H7.37272C6.70839 4.86754 6.07126 5.13145 5.60151 5.6012C5.13175 6.07096 4.86785 6.70808 4.86785 7.37242C4.86785 8.03675 5.13175 8.67388 5.60151 9.14363C6.07126 9.61339 6.70839 9.8773 7.37272 9.8773V9.8773C7.69942 9.88533 8.02451 9.82892 8.3294 9.71128C8.63429 9.59363 8.91301 9.41707 9.14964 9.19167C9.38627 8.96627 9.57617 8.69645 9.70849 8.39764C9.8408 8.09882 9.91294 7.77686 9.92079 7.45016V7.37242ZM25.9434 17.5474C25.9434 13.3928 23.3003 11.7775 20.6745 11.7775C19.8147 11.7345 18.9587 11.9176 18.1919 12.3086C17.425 12.6997 16.774 13.2849 16.3039 14.006H16.183V12.123H12.1234V25.9431H16.4421V18.5925C16.3797 17.8397 16.6168 17.0927 17.102 16.5137C17.5872 15.9347 18.2812 15.5705 19.0334 15.5003H19.1975C20.5708 15.5003 21.5901 16.3641 21.5901 18.5407V25.9431H25.9088L25.9434 17.5474Z" fill="white"/>
</svg>
