<svg width="51" height="39" viewBox="0 0 51 39" fill="none" xmlns="http://www.w3.org/2000/svg">
<path d="M5.45191 0.979004C2.88418 0.979004 0.783673 3.07544 0.771484 5.64318C0.771484 5.64318 0.771484 5.64724 0.771484 5.6513C0.771484 5.65537 0.771484 5.65537 0.771484 5.65943V33.742C0.771484 36.3138 2.88011 38.4224 5.45191 38.4224H46.0156C48.5874 38.4224 50.696 36.3138 50.696 33.742V5.65943C50.696 5.65537 50.696 5.65537 50.696 5.6513C50.696 5.64724 50.696 5.64318 50.696 5.64318C50.6838 3.07544 48.5833 0.979004 46.0156 0.979004H5.45191ZM8.15778 3.05919H43.3138L25.7337 15.3128L8.15778 3.05919ZM4.69622 3.18108L25.7337 17.848L46.7753 3.18108C47.8398 3.50205 48.6077 4.46901 48.6158 5.64724C48.6118 5.86664 48.3883 6.30543 48.0633 6.6589C47.7342 7.01643 47.4132 7.23988 47.4132 7.23988L47.4092 7.24801L25.7337 22.5894L4.05834 7.24801L4.05428 7.23988C4.05428 7.23988 3.73332 7.01643 3.40422 6.6589C3.07919 6.30543 2.85574 5.86664 2.85167 5.64724C2.8598 4.46901 3.62768 3.50205 4.69622 3.18108ZM2.85167 8.93816L2.8598 8.94629L2.86792 8.95035V8.95441L5.97196 11.1484V36.3422H5.45191C4.00553 36.3422 2.85167 35.1884 2.85167 33.742V8.93816ZM48.6158 8.93816V33.742C48.6158 35.1884 47.462 36.3422 46.0156 36.3422H45.4955V11.1484L48.5996 8.95441V8.95035L48.6158 8.93816ZM8.05215 12.6191L25.7337 25.1328L43.4154 12.6191V36.3422H8.05215V12.6191Z" fill="#F1F1F1"/>
</svg>
